<svg width="36" height="36" fill="none" xmlns="http://www.w3.org/2000/svg"><path d="M18 35a17 17 0 100-34 17 17 0 000 34z" stroke="#fff" stroke-opacity=".5" stroke-width="2"/><g opacity=".8" fill="#fff"><path d="M22.92 18a4.96 4.96 0 11-9.78-1.14h-.9v6.84h11.4v-6.84h-.9c.1.37.16.75.18 1.14z"/><path d="M18 20.66a2.66 2.66 0 10-.04-5.32 2.66 2.66 0 00.04 5.32zM23.68 12.3h-3.04v3.04h3.04V12.3z"/><path d="M18 2a16 16 0 100 32 16 16 0 000-32zm8 21.7a2.28 2.28 0 01-2.32 2.3h-11.4A2.29 2.29 0 0110 23.7V12.3a2.29 2.29 0 012.28-2.3h11.39A2.3 2.3 0 0126 12.3v11.4z"/></g></svg>