<svg width="108" height="31" fill="none" xmlns="http://www.w3.org/2000/svg"><path d="M0 12.1v2.42h2.31V12.1H0zM10.95 4.25a4.2 4.2 0 00-3.4 1.64h-.08V0h-1.9v14.52h1.9V9.54c0-2 1.25-3.43 3.08-3.43 1.73 0 2.73 1.3 2.73 3.02v5.39h1.9V8.79c0-2.76-1.7-4.54-4.23-4.54zM25.02 4.54H20.5V1h-1.9v3.53h-1.82v1.85h1.81v5.63c0 1.61.9 2.5 2.54 2.5h3.9v-1.88H21.5c-.65 0-1-.36-1-.98V6.39h4.51V4.54zM38.66 4.28c-1.53 0-2.7.74-3.34 1.93h-.06a3.38 3.38 0 00-3.15-1.93c-1.33 0-2.33.7-2.93 1.69h-.09V4.54h-1.82v9.98h1.9V9.4c0-1.88.99-3.25 2.48-3.29 1.4-.04 2.23.97 2.23 2.48v5.93h1.9V9.24c0-2.24 1.33-3.13 2.48-3.13 1.38 0 2.2.97 2.2 2.48v5.93h1.92V8.39c0-2.42-1.37-4.11-3.72-4.11zM44.96 11.94c0 1.63.93 2.58 2.63 2.58h1.9v-1.86h-1.61c-.65 0-1-.36-1-.98V0h-1.92v11.94zM27.17 18.51h-.08c-.74-1-1.95-1.7-3.56-1.72-2.96-.04-5.07 2.14-5.07 5.23 0 3.1 2.15 5.3 5.05 5.25a4.26 4.26 0 003.58-1.82h.08v1.54h1.9v-9.92h-1.9v1.44zm-3.38 6.92a3.3 3.3 0 01-3.42-3.41 3.3 3.3 0 013.42-3.4 3.28 3.28 0 013.36 3.4c0 1.86-1.32 3.4-3.36 3.4zM41.56 20.68c-.46-2.25-2.45-3.9-5.07-3.9a5.08 5.08 0 00-5.27 5.24 5.1 5.1 0 005.27 5.25 5 5 0 005.07-3.95h-2a3.12 3.12 0 01-3.05 2.13 3.3 3.3 0 01-3.38-3.43c0-1.89 1.33-3.4 3.38-3.4 1.53 0 2.66.9 3.06 2.06h2zM51.78 18.51h-.08c-.74-1-1.95-1.7-3.56-1.72-2.96-.04-5.07 2.14-5.07 5.23 0 3.1 2.15 5.3 5.05 5.25a4.26 4.26 0 003.58-1.82h.08v1.54h1.9v-9.92h-1.9v1.44zm-3.38 6.92a3.3 3.3 0 01-3.42-3.41 3.3 3.3 0 013.42-3.4 3.28 3.28 0 013.36 3.4c0 1.86-1.32 3.4-3.36 3.4zM64.54 18.61h-.08c-.74-1.06-2-1.8-3.58-1.82-2.9-.04-5.05 2.14-5.05 5.25 0 3.09 2.11 5.27 5.07 5.23a4.35 4.35 0 003.54-1.72h.1v1.44h1.9V12.56h-1.9v6.05zm-3.38 6.84a3.29 3.29 0 01-3.42-3.41 3.3 3.3 0 013.42-3.4 3.29 3.29 0 013.36 3.4c0 1.88-1.33 3.4-3.36 3.4zM73.64 16.79a5.07 5.07 0 00-5.15 5.25 5.04 5.04 0 005.19 5.23c2.33 0 4.2-1.26 4.87-3.37h-2c-.44.95-1.5 1.55-2.79 1.55-1.81 0-3.1-1.2-3.24-2.75h8.23c.26-3.3-1.81-5.91-5.11-5.91zm-.04 1.82c1.59 0 2.78.98 3.08 2.4h-6.12a3 3 0 013.04-2.4zM92.32 16.8c-1.53 0-2.7.75-3.34 1.93h-.06a3.39 3.39 0 00-3.16-1.92c-1.33 0-2.34.7-2.94 1.68h-.08v-1.42H80.9v9.92h1.92v-5.1c0-1.86.98-3.22 2.47-3.26 1.41-.04 2.24.96 2.24 2.47V27h1.9v-5.26c0-2.23 1.34-3.1 2.48-3.1 1.4 0 2.22.95 2.22 2.46V27h1.91v-6.1c0-2.4-1.37-4.1-3.72-4.1zM102.89 25.4l-3.42-8.33h-2.12l4.55 10.86-.02.04c-.32.82-.68 1.13-1.57 1.13h-2.35V31h2.35c1.73 0 2.66-.78 3.3-2.47L108 17.07h-1.95l-3.16 8.34z" fill="#fff"/></svg>